<?xml version="1.0" encoding="UTF-8"?>
<svg id="Layer_2" data-name="Layer 2" xmlns="http://www.w3.org/2000/svg" viewBox="0 0 134.39 247.94">
  <g id="Layer_1-2" data-name="Layer 1">
    <path d="m134.38,3.32l-3.74-3.32H4.5C3.31,1.3,2.12,2.61.93,3.91c.03,3.69.06,7.38.09,11.06,4.74.09,9.48.17,14.21.26-2.71,4.18-12.28,19.95-8.68,37.87,1.75,8.72,6.31,16.41,7.83,18.86,1.44,2.31,3.82,5.54,9.7,11.95,5.74,6.26,25.92,26.3,32.94,34.47,1,1.17,3.16,3.75,3.06,7.15-.08,2.88-1.74,5.12-2.89,6.38-12.71,13.48-25.42,26.95-38.13,40.43-3.36,3.64-11.15,13.02-12.77,25.96,0,0-1.3,10.39,2.3,23.32.33,1.18.7,2.35.7,2.35,1.17,3.7,2.46,6.69,3.5,8.84H0c.04,3.96.09,7.91.13,11.87,1.13,1.09,2.26,2.17,3.38,3.26h125.74c1.26-.96,2.51-1.91,3.77-2.87.09-4.09.17-8.17.26-12.26h-11.16c2.37-4.22,5.22-10.55,6.48-18.68.56-3.64,1.78-12.1-1.11-21.96-.81-2.76-2.7-8.24-9.02-16.85-11.12-15.14-31.87-34.43-39.57-42.47-.98-1.03-3.2-3.41-3.49-6.81-.18-2.18.49-4,1.02-5.11,15.86-17.03,28.75-31.01,38.98-41.7,2.9-3.04,7.98-8.3,10.98-16.77,2.66-7.51,2.44-13.98,2.21-19.91-.21-5.55-.62-14.13-5.53-23.23-.91-1.69-1.78-3.03-2.38-3.91,4.57-.03,9.13-.06,13.7-.09V3.32h0Zm-67.76,125.37c-.12,17.44-.25,34.89-.37,52.33-5.04,8.12-9.86,10.49-13.4,11.11-3.25.56-5.16-.39-9.7.55-2.4.5-5.53,1.53-10.47,4.81-9.04,6.01-16.16,14.27-19.66,18.64-1.98-17.73,2.7-28.29,6-33.7,2.36-3.88,6.51-8.41,14.81-17.49,7.26-7.93,10.88-11.9,14.43-15.06,4.58-4.09,9.01-7.45,13.4-14.04,1.55-2.33,2.64-4.37,3.32-5.74.17-3.06.34-6.13.51-9.19.38,2.04.77,4.09,1.15,6.13,0,.56,0,1.11-.01,1.67v-.02Zm20.35,21.44c3.54,3.16,7.17,7.13,14.43,15.06,8.3,9.07,12.45,13.61,14.81,17.49,3.3,5.41,7.98,15.97,6,33.7-3.5-4.37-10.62-12.63-19.66-18.64-4.93-3.28-8.07-4.31-10.47-4.81-4.54-.94-6.45,0-9.7-.55-3.54-.61-8.37-2.98-13.4-11.11-.12-17.44-.25-34.89-.37-52.33,0-.56,0-1.11-.01-1.67.38-2.04.77-4.09,1.15-6.13.17,3.06.34,6.13.51,9.19.68,1.38,1.77,3.42,3.32,5.74,4.39,6.59,8.82,9.95,13.4,14.04v.02Zm35.92-100.17c-1.2,8.84-4.51,14.52-8.94,22.13-3.63,6.24-5.44,7.45-7.15,7.91-5.21,1.43-7.21-4.59-15.79-5.96-5.94-.95-6.83,1.64-18.57,1.4-3.57-.07-5.85-.36-8.11-.89-4.94-1.17-6.5-2.75-10.09-4.21-6.96-2.83-16.43-3.1-24.06-.83-3.45,1.03-6.29,2.5-9.26,1.13-2.37-1.1-3.51-3.41-4.26-5.11-4.8-10.93-4.68-21.11-4.68-21.11.11-9.06,2.34-16.73,4.77-22.47,33.87.06,67.74.11,101.62.17,1.99,4.12,6.32,14.51,4.51,27.83h0Z"/>
  </g>
</svg>