<?xml version="1.0" encoding="UTF-8"?>
<svg id="Layer_2" data-name="Layer 2" xmlns="http://www.w3.org/2000/svg" viewBox="0 0 338.42 537.19">
  <defs>
    <style>
      .cls-1 {
        fill: none;
      }
    </style>
  </defs>
  <g id="Layer_1-2" data-name="Layer 1">
    <g>
      <path class="cls-1" d="m169.36,310.72c-21.69,0-39.28,16.71-39.28,37.31,0,13.68,7.75,25.63,19.3,32.13v61.79c0,11.57,8.91,20.94,19.91,20.94s19.91-9.38,19.91-20.94v-61.72c11.63-6.48,19.44-18.47,19.44-32.2,0-20.61-17.58-37.31-39.28-37.31Z"/>
      <path class="cls-1" d="m252.32,114.53c4.49-29.39-10.55-56.61-39.58-69.39-20.92-9.21-43.67-8.54-46.86-8.41-29.59,1.14-48.53,13.61-53.87,17.23-32.45,22.03-28.09,53.72-27.43,57.86.1,34.52.19,69.04.29,103.56,7.45.07,14.9.14,22.36.21v10.89h147.46c-.79-33.77-1.58-67.54-2.37-101.3v-10.63Z"/>
      <path d="m309.57,226.47c-.57-39.46-1.15-78.91-1.72-118.37.18-6.47-.29-15.41-3.19-25.79-2.49-8.91-9.15-31.43-32.23-50.34C233.59.16,174.37-.03,169.65,0c-55.85.44-102.88,25.84-124.26,56.94-14.3,20.81-14.57,40.45-13.65,50.75-.44,35.83-.87,71.65-1.31,107.48-6.73.07-13.45.14-20.18.21v11.1H0v310.72h338.42V226.47h-28.86Zm-120.37,153.77v61.72c0,11.57-8.91,20.94-19.91,20.94s-19.91-9.38-19.91-20.94v-61.79c-11.55-6.5-19.3-18.45-19.3-32.13,0-20.61,17.58-37.31,39.28-37.31s39.28,16.71,39.28,37.31c0,13.73-7.81,25.72-19.44,32.2Zm-81.97-153.77v-10.89c-7.45-.07-14.9-.14-22.36-.21-.1-34.52-.19-69.04-.29-103.56-.66-4.13-5.02-35.83,27.43-57.86,5.33-3.62,24.27-16.09,53.87-17.23,3.19-.12,25.94-.8,46.86,8.41,29.03,12.78,44.07,40,39.58,69.39v10.63c.79,33.77,1.58,67.54,2.37,101.3H107.23Z"/>
    </g>
  </g>
</svg>