<?xml version="1.0" encoding="UTF-8"?>
<svg id="Layer_2" data-name="Layer 2" xmlns="http://www.w3.org/2000/svg" xmlns:xlink="http://www.w3.org/1999/xlink" viewBox="0 0 285.44 93.77">
  <defs>
    <style>
      .cls-1 {
        fill: url(#linear-gradient);
      }
    </style>
    <linearGradient id="linear-gradient" x1="0" y1="46.88" x2="285.44" y2="46.88" gradientUnits="userSpaceOnUse">
      <stop offset="0" stop-color="#000"/>
      <stop offset="1" stop-color="#000"/>
    </linearGradient>
  </defs>
  <path class="cls-1" d="m285.43,46.03c-.05-2.48-.13-6.64-3.02-8.55-.93-.61-1.89-.82-2.59-.9h-75.57c.1-.44.14-1-.09-1.54-.9-2.12-5.12-1.96-6.55-1.9-1.58.06-4.78.18-5.81,2.11-.39.74-.31,1.45-.32,1.6-.15,2.14-29.76,2.52-108.64-.26.36-.93.19-1.98-.45-2.74-.98-1.18-2.48-.97-2.55-.96h-9.26l.02-.02c-.27-3.37-1.49-12.99-9.06-21.45C59.38,9.02,51.32.03,39.26,0,23.08-.04,13.62,16.08,12,18.83c-5,8.51-5.62,16.85-5.62,21.19C2.86,40.13.05,43,0,46.4c-.05,3.56,2.94,6.61,6.64,6.57.01,3.95.55,17.13,10.4,28.34,2.53,2.88,10.7,12.16,21.64,12.45,13.39.35,27.48-12.85,32.17-32.94,3.23-.17,6.47-.34,9.7-.51.07,0,1.64-.27,2.23-1.72.51-1.25-.11-2.36-.19-2.49,36.26-.09,72.51-.17,108.77-.26.01.75.16,2.15,1.15,3.19,1.18,1.23,2.83,1.2,5.74,1.15,2.85-.05,4.77-.09,5.55-1.4.55-.92.31-2.08.06-2.81,6.26.13,12.51.26,18.77.38.04,1.91.09,3.83.13,5.74-2.77.09-5.53.17-8.3.26.13,7.74.26,15.49.38,23.23h13.4c-.13-3.57-.26-7.15-.38-10.72,2.85.04,5.7.09,8.55.13-.09,3.28-.17,6.55-.26,9.83,4.64.09,9.28.17,13.91.26.04-3.4.09-6.81.13-10.21,2.6.04,5.19.09,7.79.13.09,3.45.17,6.89.26,10.34,4.38.09,8.77.17,13.15.26-.2-7.6-.4-15.19-.61-22.79-2.44-.06-4.87-.13-7.31-.19v-6.51h15.96c.75.02,1.85-.08,2.9-.69,3.24-1.88,3.14-6.96,3.1-9.39ZM59.23,62.5c-.2,10.3-9.78,19.92-21.06,19.4-9.77-.45-18.2-8.38-19.02-18-.88-10.34,7.5-17.09,8.17-17.62-1.51-.96-5.03-3.48-7.02-8.17-2.87-6.75-.44-12.98.38-14.81,3.05-6.8,10.29-11.95,18.64-11.87,8.54.09,15.68,5.62,18.51,12.51.49,1.2,3.14,7.66,0,14.55-2.05,4.49-5.5,6.87-7.02,7.79h-.01c1.01.79,8.62,6.87,8.43,16.22Z"/>
</svg>