<?xml version="1.0" encoding="UTF-8"?>
<svg id="Layer_2" data-name="Layer 2" xmlns="http://www.w3.org/2000/svg" viewBox="0 0 119.72 177.3">
  <g id="Layer_1-2" data-name="Layer 1">
    <path d="m87.68,3.45c-11.79,3.26-23.57,6.51-35.36,9.77-.04-4.4-.09-8.81-.13-13.21h-14.94c-.02,5.74-.04,11.49-.06,17.23-12.4,3.4-24.79,6.81-37.19,10.21,2.8,10.51,5.6,21.02,8.4,31.53,9.68-2.7,19.36-5.4,29.04-8.11-.02,42.14-.04,84.28-.06,126.43h14.94c.04-43.48.09-86.97.13-130.45,14.79-4.06,29.57-8.13,44.36-12.19,7.64-7.77,15.28-15.53,22.91-23.3-10.68-2.64-21.36-5.28-32.04-7.91ZM25.13,41.47c-.22,1.78-1.4,2.92-2.06,3.4-.44.32-.9.53-1.58.85-.47.22-1.28.58-2.29.83-.78.19-2.01.4-3.58.24-.21-1.43-.41-2.87-.62-4.3.26-.14.51-.28.77-.43.64,1.06,1.28,2.13,1.91,3.19,1.94.17,3.6-.76,4.06-2.12.24-.7.22-1.65-.28-2.37-.51-.74-1.34-.95-2.77-1.3-1.41-.34-1.57-.14-2.47-.38-.39-.11-2.56-.7-3.51-2.66-1.1-2.26.26-4.6.32-4.7,1.18-1.96,3.42-2.48,5.15-2.87,1.22-.28,2.27-.32,3-.3.11,1.35.23,2.71.34,4.06-.2.11-.4.22-.6.34-.59-.92-1.17-1.84-1.76-2.76-.36-.05-1.16-.11-2.03.29-.4.18-1.3.59-1.63,1.54-.35,1,.11,2.05.66,2.64.49.53,1.1.7,1.98.96.87.25,1.3.23,2,.34.46.07,2.24.36,3.38,1.3,1.12.92,1.8,2.57,1.6,4.21Zm11.49-.49c-.16-.12-.32-.31-.45-.62-.15.18-.38.43-.68.7-.42.38-1.54,1.36-3.21,1.68-.8.15-1.59.3-2.43-.09-1.49-.69-1.81-2.49-1.85-2.74-.59-1.87-1.18-3.74-1.77-5.62-.57,0-1.13.01-1.7.02-.09-.19-.18-.38-.28-.57,1.58-.77,3.16-1.53,4.74-2.3.87,2.74,1.74,5.48,2.62,8.21.09.1.18.19.28.26,1.21.88,3.26-.21,3.57-.38-.67-2.43-1.33-4.87-2-7.3-.58-.02-1.16-.04-1.74-.06-.06-.2-.13-.4-.19-.6,1.56-.74,3.12-1.49,4.68-2.23.87,2.94,1.74,5.89,2.62,8.83.03.1.08.21.15.32.29.45.75.61.94.66.31-.03.62-.06.94-.09.08.21.16.41.23.62-1.79,1.45-3.59,1.97-4.47,1.3Zm10.7-2.64c-.62.07-3.13.37-5.04-1.49-2.01-1.96-1.67-4.67-1.62-5.02.33-2.3,1.95-3.89,3.45-4.62.28-.14.93-.36,1.7-.53.21-.05.92-.19,1.87-.23.53-.02.98,0,1.34.02l.21,3.66c-.26.04-.51.07-.77.11-.43-.7-.87-1.4-1.3-2.11-.22.06-2.51.67-2.96,2.36-.21.81.03,1.74.19,2.36.14.53.25.96.55,1.45.65,1.04,1.88,1.88,3.19,1.87.28,0,.51-.05.96-.15,1.08-.23,1.92-.6,2.47-.87.08.25.16.5.23.74-.36.42-1.89,2.14-4.49,2.45Zm10.82-3.12c-.62.07-3.13.37-5.04-1.49-2.01-1.96-1.67-4.67-1.62-5.02.33-2.3,1.95-3.89,3.45-4.62.28-.14.93-.36,1.7-.53.21-.05.92-.19,1.87-.23.53-.02.98,0,1.34.02l.21,3.66-.77.11c-.43-.7-.87-1.4-1.3-2.11-.22.06-2.51.67-2.96,2.36-.21.81.03,1.74.19,2.36.14.53.25.96.55,1.45.65,1.04,1.88,1.88,3.19,1.87.28,0,.51-.05.96-.15,1.08-.23,1.92-.6,2.47-.87.08.25.16.5.23.74-.36.42-1.89,2.14-4.49,2.45Zm9.18-3.56c-.83-.07-2.48-.2-3.83-1.49-1.83-1.75-1.64-4.27-1.6-4.74.05-.55.3-2.28,1.74-3.7,1.4-1.38,3.05-1.61,3.77-1.7.86-.11,2.03-.27,3.21.4,1.24.71,2.01,2.05,2.15,3.3.03.23.03.42.02.55-2.38.68-4.75,1.36-7.13,2.04.04.28.25,1.56,1.4,2.45,1.54,1.18,3.38.58,3.53.53,1.1-.36,2.2-.72,3.3-1.09.1.28.2.55.3.83-.67.62-3.31,2.9-6.87,2.62Zm16.77-5.13c-1.05,1.86-3.44,2.3-4.47,2.49-.44.08-.81.11-1.06.13-.74.01-1.48.03-2.21.04-.06-1.1-.13-2.2-.19-3.3.21-.09.43-.18.64-.28.5.75,1.01,1.5,1.51,2.26,1.57.13,2.88-.38,3.28-1.3.02-.04.36-.85-.04-1.43-.14-.2-.39-.41-1.36-.57-.96-.17-1.4-.08-2.09-.13-.79-.05-1.95-.13-2.83-.91-1.07-.95-1.07-2.36-1.06-2.45.02-1.01.52-1.71.77-2.04,1.24-1.68,3.4-1.98,4.51-2.13,1.04-.14,1.91-.09,2.47-.02.05,1.02.1,2.04.15,3.06-.18.09-.37.18-.55.28-.45-.67-.91-1.35-1.36-2.02-1.77-.03-3.09.67-3.28,1.55-.09.4.03.98.4,1.32.36.32.82.29,1.45.3,0,0,1.44.01,2.68.23.7.13,2.19.38,2.85,1.49.9,1.5-.05,3.18-.19,3.43Zm10.57-3.09c-1.05,1.86-3.44,2.3-4.47,2.49-.44.08-.81.11-1.06.13-.74.01-1.48.03-2.21.04-.06-1.1-.13-2.2-.19-3.3.21-.09.43-.18.64-.28l1.51,2.26c1.57.13,2.88-.38,3.28-1.3.02-.04.36-.85-.04-1.43-.14-.2-.39-.41-1.36-.57-.96-.17-1.4-.08-2.09-.13-.79-.05-1.95-.13-2.83-.91-1.07-.95-1.07-2.36-1.06-2.45.02-1.01.52-1.71.77-2.04,1.24-1.68,3.4-1.98,4.51-2.13,1.04-.14,1.91-.09,2.47-.02.05,1.02.1,2.04.15,3.06-.18.09-.37.18-.55.28-.45-.67-.91-1.35-1.36-2.02-1.77-.03-3.09.67-3.28,1.55-.09.4.03.98.4,1.32.36.32.82.29,1.45.3,0,0,1.44.01,2.68.23.7.13,2.19.38,2.85,1.49.9,1.5-.05,3.18-.19,3.43Z"/>
  </g>
</svg>